<svg viewBox="0 0 25 25" fill="#FFFFFF" xmlns="http://www.w3.org/2000/svg">
<path d="M12.3152 0.646484C9.94181 0.646484 7.62174 1.35027 5.64835 2.66885C3.67496 3.98743 2.13689 5.86157 1.22864 8.05428C0.320385 10.247 0.0827449 12.6598 0.545768 14.9876C1.00879 17.3153 2.15168 19.4535 3.82991 21.1318C5.50814 22.81 7.64634 23.9529 9.97411 24.4159C12.3019 24.8789 14.7147 24.6413 16.9074 23.733C19.1001 22.8248 20.9742 21.2867 22.2928 19.3133C23.6114 17.3399 24.3152 15.0199 24.3152 12.6465C24.3152 9.46389 23.0509 6.41164 20.8005 4.1612C18.55 1.91077 15.4978 0.646484 12.3152 0.646484V0.646484ZM12.3152 3.14648C14.1188 3.14551 15.8853 3.65851 17.4078 4.62538C18.9303 5.59225 20.1458 6.97296 20.9118 8.60577C21.6778 10.2386 21.9627 12.0559 21.7331 13.8448C21.5034 15.6337 20.7688 17.3201 19.6152 18.7065C19.5448 18.7899 19.4495 18.8485 19.3433 18.8737C19.2371 18.8989 19.1256 18.8894 19.0252 18.8465C18.1452 18.4465 17.0752 18.0565 15.8652 17.6065L15.1152 17.3365C14.9852 17.2865 14.8652 17.0665 14.7952 16.7765C14.7241 16.5216 14.7042 16.2551 14.7368 15.9924C14.7695 15.7298 14.8539 15.4763 14.9852 15.2465C16.0552 14.0665 16.7152 12.8065 16.7152 10.1465C16.7675 9.54296 16.6918 8.93519 16.4929 8.363C16.2939 7.7908 15.9764 7.26709 15.561 6.82618C15.1455 6.38526 14.6416 6.03711 14.0823 5.80451C13.5229 5.57191 12.9208 5.46013 12.3152 5.47648C11.7096 5.46013 11.1074 5.57191 10.5481 5.80451C9.98874 6.03711 9.48484 6.38526 9.06942 6.82618C8.654 7.26709 8.33643 7.7908 8.13752 8.363C7.93861 8.93519 7.86284 9.54296 7.91519 10.1465C7.91519 12.8065 8.57519 14.0765 9.64519 15.2465C9.77652 15.4763 9.86093 15.7298 9.89355 15.9924C9.92616 16.2551 9.90633 16.5216 9.83519 16.7765C9.76519 17.0665 9.64519 17.2865 9.51519 17.3365L8.76519 17.6465C7.55519 18.0965 6.48519 18.4865 5.60519 18.8865C5.50481 18.9294 5.39333 18.9389 5.28712 18.9137C5.18092 18.8885 5.08561 18.8299 5.01519 18.7465C3.84927 17.3609 3.10413 15.6706 2.86774 13.8753C2.63134 12.0799 2.91356 10.2543 3.68108 8.61417C4.4486 6.974 5.66936 5.58767 7.19927 4.61883C8.72917 3.64999 10.5043 3.13911 12.3152 3.14648Z" />
</svg>
