<svg viewBox="0 0 17 17" fill="#000000" xmlns="http://www.w3.org/2000/svg">
  <path d="M8.76416 0.074707C7.18191 0.074707 5.63519 0.543899 4.3196 1.42295C3.00401 2.302 1.97863 3.55143 1.37313 5.01324C0.767626 6.47505 0.6092 8.08358 0.917881 9.63543C1.22656 11.1873 1.98849 12.6127 3.10731 13.7316C4.22613 14.8504 5.65159 15.6123 7.20344 15.921C8.75529 16.2297 10.3638 16.0712 11.8256 15.4657C13.2874 14.8602 14.5369 13.8349 15.4159 12.5193C16.295 11.2037 16.7642 9.65696 16.7642 8.07471C16.7642 5.95297 15.9213 3.91814 14.421 2.41785C12.9207 0.917562 10.8859 0.074707 8.76416 0.074707V0.074707ZM8.76416 14.0747C7.57748 14.0747 6.41744 13.7228 5.43074 13.0635C4.44405 12.4042 3.67501 11.4672 3.22089 10.3708C2.76676 9.27445 2.64794 8.06805 2.87945 6.90416C3.11096 5.74028 3.68241 4.67118 4.52152 3.83207C5.36064 2.99295 6.42974 2.42151 7.59362 2.19C8.75751 1.95848 9.96391 2.0773 11.0603 2.53143C12.1566 2.98556 13.0937 3.75459 13.753 4.74128C14.4123 5.72798 14.7642 6.88802 14.7642 8.07471C14.7642 9.666 14.132 11.1921 13.0068 12.3173C11.8816 13.4426 10.3555 14.0747 8.76416 14.0747Z" transform="matrix(0.9999999999999999, 0, 0, 0.9999999999999999, -0.23205434574114214, 0.37421022838478124)"></path>
  <path d="M12.2642 7.12129H9.8842C9.84 7.12129 9.79761 7.10373 9.76635 7.07248C9.73509 7.04122 9.71753 6.99883 9.71753 6.95462V4.57463C9.71775 4.40344 9.6521 4.23873 9.5342 4.11463C9.4163 3.99052 9.25517 3.91652 9.0842 3.90796H8.41753C8.24656 3.91652 8.08544 3.99052 7.96753 4.11463C7.84963 4.23873 7.78399 4.40344 7.7842 4.57463V6.95462C7.7842 6.99883 7.76664 7.04122 7.73538 7.07248C7.70413 7.10373 7.66174 7.12129 7.61753 7.12129H5.2642C5.09302 7.12108 4.92831 7.18672 4.8042 7.30462C4.68009 7.42253 4.60609 7.58365 4.59753 7.75463V8.42129C4.60609 8.59226 4.68009 8.75339 4.8042 8.87129C4.92831 8.9892 5.09302 9.05484 5.2642 9.05463H7.6442C7.6884 9.05463 7.7308 9.07218 7.76205 9.10344C7.79331 9.1347 7.81087 9.17709 7.81087 9.22129V11.6013C7.81895 11.7667 7.88827 11.9231 8.00533 12.0402C8.1224 12.1572 8.27884 12.2265 8.4442 12.2346H9.11087C9.27623 12.2265 9.43267 12.1572 9.54973 12.0402C9.6668 11.9231 9.73612 11.7667 9.7442 11.6013V9.19462C9.7442 9.15042 9.76176 9.10803 9.79302 9.07677C9.82427 9.04552 9.86666 9.02796 9.91087 9.02796H12.2909C12.4562 9.01988 12.6127 8.95056 12.7297 8.83349C12.8468 8.71642 12.9161 8.55999 12.9242 8.39462V7.72796C12.9093 7.56289 12.8334 7.40929 12.7114 7.29713C12.5894 7.18496 12.4299 7.12228 12.2642 7.12129Z" transform="matrix(0.9999999999999999, 0, 0, 0.9999999999999999, -0.23205434574114214, 0.37421022838478124)"></path>
</svg>