<svg viewBox="0 0 21 25" fill="#FFFFFF" xmlns="http://www.w3.org/2000/svg">
<path d="M19.6304 18.1465C19.2325 18.1465 18.851 17.9884 18.5697 17.7071C18.2884 17.4258 18.1304 17.0443 18.1304 16.6465V11.7865C18.1805 9.88887 17.5543 8.03525 16.3635 6.55689C15.1728 5.07852 13.4951 4.07175 11.6304 3.71648V1.64648C11.6304 1.38127 11.525 1.12691 11.3375 0.939378C11.1499 0.751841 10.8956 0.646484 10.6304 0.646484C10.3652 0.646484 10.1108 0.751841 9.92326 0.939378C9.73573 1.12691 9.63037 1.38127 9.63037 1.64648V3.71648C7.76563 4.07175 6.08799 5.07852 4.89723 6.55689C3.70648 8.03525 3.08022 9.88887 3.13037 11.7865V16.6465C3.13037 17.0443 2.97234 17.4258 2.69103 17.7071C2.40973 17.9884 2.0282 18.1465 1.63037 18.1465C1.36515 18.1465 1.1108 18.2518 0.923264 18.4394C0.735728 18.6269 0.630371 18.8813 0.630371 19.1465C0.630371 19.4117 0.735728 19.6661 0.923264 19.8536C1.1108 20.0411 1.36515 20.1465 1.63037 20.1465H19.6304C19.8956 20.1465 20.1499 20.0411 20.3375 19.8536C20.525 19.6661 20.6304 19.4117 20.6304 19.1465C20.6304 18.8813 20.525 18.6269 20.3375 18.4394C20.1499 18.2518 19.8956 18.1465 19.6304 18.1465Z" />
<path d="M12.8704 21.6465H8.39044C8.33076 21.6485 8.27374 21.6718 8.22972 21.7121C8.1857 21.7525 8.15758 21.8072 8.15044 21.8665C8.14549 21.9598 8.14549 22.0533 8.15044 22.1465C8.15044 22.8096 8.41384 23.4455 8.88268 23.9143C9.35152 24.3831 9.9874 24.6465 10.6504 24.6465C11.3135 24.6465 11.9494 24.3831 12.4182 23.9143C12.8871 23.4455 13.1504 22.8096 13.1504 22.1465C13.1554 22.0533 13.1554 21.9598 13.1504 21.8665C13.1467 21.8336 13.1365 21.8017 13.1204 21.7728C13.1042 21.7439 13.0825 21.7184 13.0565 21.698C13.0304 21.6775 13.0006 21.6624 12.9686 21.6536C12.9367 21.6447 12.9033 21.6423 12.8704 21.6465Z" />
</svg>
