<svg viewBox="0 0 19 19" fill="#000000" xmlns="http://www.w3.org/2000/svg">
  <path d="M 18.49 9.387 C 18.489 9.131 18.434 8.879 18.329 8.646 C 18.224 8.413 18.07 8.206 17.879 8.037 L 9.495 0.657 C 9.278 0.48 9.001 0.394 8.722 0.417 C 8.443 0.44 8.184 0.57 8 0.78 C 7.815 0.99 7.719 1.264 7.732 1.544 C 7.745 1.823 7.866 2.087 8.07 2.279 L 14.548 7.979 C 14.576 8.004 14.596 8.037 14.605 8.074 C 14.614 8.111 14.612 8.15 14.599 8.185 C 14.585 8.221 14.561 8.251 14.53 8.273 C 14.499 8.295 14.462 8.306 14.424 8.307 L 1.588 8.307 C 1.302 8.307 1.027 8.42 0.825 8.623 C 0.622 8.825 0.508 9.1 0.508 9.387 C 0.508 9.673 0.622 9.948 0.825 10.15 C 1.027 10.353 1.302 10.466 1.588 10.466 L 14.422 10.466 C 14.46 10.467 14.497 10.479 14.528 10.5 C 14.559 10.522 14.583 10.553 14.596 10.588 C 14.609 10.624 14.612 10.663 14.603 10.7 C 14.594 10.736 14.574 10.77 14.545 10.795 L 8.068 16.495 C 7.954 16.586 7.861 16.7 7.792 16.829 C 7.724 16.957 7.683 17.098 7.67 17.243 C 7.658 17.388 7.675 17.535 7.72 17.673 C 7.766 17.811 7.839 17.939 7.935 18.048 C 8.031 18.158 8.149 18.246 8.28 18.309 C 8.411 18.372 8.554 18.408 8.7 18.414 C 8.845 18.42 8.99 18.397 9.127 18.346 C 9.263 18.295 9.387 18.216 9.493 18.116 L 17.878 10.736 C 18.07 10.567 18.223 10.36 18.329 10.127 C 18.434 9.894 18.489 9.642 18.49 9.387 Z" transform="matrix(0, -1, 1, 0, 0.084865, 18.913135)" />
</svg>