<svg viewBox="0 0 19 19" fill="#000000" xmlns="http://www.w3.org/2000/svg">
  <path d="M18.8506 9.05754C18.85 8.80217 18.7952 8.54983 18.69 8.31714C18.5848 8.08445 18.4315 7.87669 18.2401 7.70754L9.85588 0.32829C9.63931 0.150997 9.36236 0.0647074 9.08341 0.0876078C8.80446 0.110508 8.54529 0.240809 8.36053 0.45105C8.17576 0.661291 8.07983 0.93505 8.09296 1.21463C8.10609 1.49422 8.22724 1.75778 8.43088 1.94979L14.9086 7.64979C14.937 7.675 14.9571 7.70823 14.9662 7.74511C14.9753 7.78198 14.973 7.82074 14.9596 7.85627C14.9462 7.8918 14.9223 7.92242 14.8911 7.94408C14.8599 7.96573 14.8229 7.9774 14.7849 7.97754H1.94938C1.66295 7.97754 1.38825 8.09133 1.18571 8.29387C0.98317 8.4964 0.869385 8.77111 0.869385 9.05754C0.869385 9.34397 0.98317 9.61868 1.18571 9.82121C1.38825 10.0238 1.66295 10.1375 1.94938 10.1375H14.7826C14.8206 10.1379 14.8576 10.1497 14.8887 10.1715C14.9198 10.1932 14.9436 10.2239 14.957 10.2594C14.9704 10.2949 14.9727 10.3337 14.9637 10.3706C14.9546 10.4074 14.9347 10.4407 14.9064 10.466L8.42863 16.166C8.31535 16.2575 8.22173 16.371 8.15343 16.4996C8.08512 16.6282 8.04353 16.7693 8.03115 16.9144C8.01878 17.0595 8.03588 17.2056 8.08142 17.344C8.12696 17.4823 8.20001 17.61 8.29616 17.7193C8.39232 17.8287 8.5096 17.9175 8.64096 17.9804C8.77231 18.0432 8.91502 18.0789 9.06051 18.0852C9.206 18.0915 9.35127 18.0683 9.48756 18.017C9.62386 17.9657 9.74838 17.8874 9.85363 17.7868L18.2394 10.4075C18.4309 10.2385 18.5844 10.0308 18.6898 9.79809C18.7952 9.56539 18.85 9.31299 18.8506 9.05754Z" />
</svg>