<svg viewBox="0 0 19 19" fill="#000000" xmlns="http://www.w3.org/2000/svg">
  <path d="M0.350515 16.9711C0.239478 17.081 0.15132 17.2119 0.0911514 17.3562C0.0309825 17.5004 0 17.6553 0 17.8116C0 17.968 0.0309825 18.1228 0.0911514 18.2671C0.15132 18.4114 0.239478 18.5423 0.350515 18.6522C0.573119 18.8749 0.874868 19 1.18948 19C1.50409 19 1.80584 18.8749 2.02845 18.6522L9.35753 11.3095C9.37599 11.2903 9.39812 11.275 9.4226 11.2646C9.44708 11.2542 9.4734 11.2488 9.5 11.2488C9.5266 11.2488 9.55292 11.2542 9.5774 11.2646C9.60188 11.275 9.62401 11.2903 9.64247 11.3095L16.9716 18.6522C17.1942 18.8749 17.4959 19 17.8105 19C18.1251 19 18.4269 18.8749 18.6495 18.6522C18.7605 18.5423 18.8487 18.4114 18.9088 18.2671C18.969 18.1228 19 17.968 19 17.8116C19 17.6553 18.969 17.5004 18.9088 17.3562C18.8487 17.2119 18.7605 17.081 18.6495 16.9711L11.3204 9.62842C11.3012 9.60993 11.286 9.58776 11.2756 9.56323C11.2652 9.53871 11.2598 9.51234 11.2598 9.48569C11.2598 9.45904 11.2652 9.43267 11.2756 9.40814C11.286 9.38362 11.3012 9.36145 11.3204 9.34296L18.6495 2.00027C18.8592 1.7748 18.9734 1.47658 18.9679 1.16844C18.9625 0.860297 18.8379 0.566296 18.6204 0.348373C18.4029 0.130451 18.1094 0.00562209 17.8018 0.000185307C17.4943 -0.00525148 17.1966 0.109128 16.9716 0.319227L9.64247 7.66191C9.62401 7.6811 9.60188 7.69636 9.5774 7.70678C9.55292 7.71721 9.5266 7.72258 9.5 7.72258C9.4734 7.72258 9.44708 7.71721 9.4226 7.70678C9.39812 7.69636 9.37599 7.6811 9.35753 7.66191L2.02845 0.319227C1.80339 0.109128 1.50572 -0.00525148 1.19815 0.000185307C0.890582 0.00562209 0.597125 0.130451 0.379607 0.348373C0.162088 0.566296 0.0374903 0.860297 0.0320636 1.16844C0.0266369 1.47658 0.140805 1.7748 0.350515 2.00027L7.6796 9.34296C7.69875 9.36145 7.71398 9.38362 7.72439 9.40814C7.73479 9.43267 7.74015 9.45904 7.74015 9.48569C7.74015 9.51234 7.73479 9.53871 7.72439 9.56323C7.71398 9.58776 7.69875 9.60993 7.6796 9.62842L0.350515 16.9711Z" />
</svg>