<?xml version="1.0" encoding="utf-8"?>
<svg viewBox="0 0 53 54" fill="#FF3559" xmlns="http://www.w3.org/2000/svg">
  <g filter="url(#filter0_d_207_6436)" style="" transform="matrix(1.250778, 0, 0, 1.309448, -6.858829, -7.41632)">
    <path d="M44.0618 24.241L28.75 8.92918C28.1518 8.33407 27.3424 8 26.4987 8C25.6549 8 24.8455 8.33407 24.2474 8.92918L8.93556 24.2564C8.63904 24.5516 8.40375 24.9024 8.2432 25.2887C8.08265 25.6751 8 26.0893 8 26.5077C8 26.9261 8.08265 27.3403 8.2432 27.7267C8.40375 28.113 8.63904 28.4639 8.93556 28.759L24.2474 44.0554C24.5376 44.3599 24.8871 44.6017 25.2742 44.7662C25.6614 44.9306 26.0781 45.014 26.4987 45.0114C26.9199 45.012 27.337 44.9291 27.726 44.7677C28.1151 44.6063 28.4683 44.3694 28.7654 44.0708L44.0618 28.7744C44.6626 28.173 45 27.3578 45 26.5077C45 25.6577 44.6626 24.8424 44.0618 24.241ZM24.9567 17.9035C24.9567 17.4945 25.1192 17.1023 25.4083 16.8131C25.6975 16.524 26.0897 16.3615 26.4987 16.3615C26.9076 16.3615 27.2998 16.524 27.589 16.8131C27.8782 17.1023 28.0407 17.4945 28.0407 17.9035V27.1553C28.0407 27.5643 27.8782 27.9565 27.589 28.2457C27.2998 28.5349 26.9076 28.6973 26.4987 28.6973C26.0897 28.6973 25.6975 28.5349 25.4083 28.2457C25.1192 27.9565 24.9567 27.5643 24.9567 27.1553V17.9035ZM26.5758 35.6516C25.9696 35.6444 25.3891 35.4056 24.9534 34.9841C24.5176 34.5627 24.2595 33.9905 24.232 33.3849C24.2195 33.0796 24.2689 32.7748 24.3772 32.4891C24.4855 32.2033 24.6505 31.9424 24.8623 31.722C25.074 31.5016 25.3281 31.3263 25.6093 31.2067C25.8906 31.087 26.1931 31.0255 26.4987 31.0257C27.1007 31.0371 27.6755 31.2781 28.1055 31.6995C28.5355 32.1209 28.7881 32.6908 28.8116 33.2924C28.8219 33.5947 28.772 33.896 28.6648 34.1788C28.5576 34.4616 28.3953 34.7203 28.1873 34.9398C27.9792 35.1593 27.7296 35.3353 27.453 35.4575C27.1763 35.5797 26.8782 35.6457 26.5758 35.6516Z"/>
  </g>
  <defs>
    <filter id="filter0_d_207_6436" x="0" y="0" width="53" height="53.0117" filterUnits="userSpaceOnUse" color-interpolation-filters="sRGB">
      <feFlood flood-opacity="0" result="BackgroundImageFix"/>
      <feColorMatrix in="SourceAlpha" type="matrix" values="0 0 0 0 0 0 0 0 0 0 0 0 0 0 0 0 0 0 127 0" result="hardAlpha"/>
      <feOffset/>
      <feGaussianBlur stdDeviation="4"/>
      <feComposite in2="hardAlpha" operator="out"/>
      <feColorMatrix type="matrix" values="0 0 0 0 1 0 0 0 0 0.207843 0 0 0 0 0.350431 0 0 0 0.25 0"/>
      <feBlend mode="normal" in2="BackgroundImageFix" result="effect1_dropShadow_207_6436"/>
      <feBlend mode="normal" in="SourceGraphic" in2="effect1_dropShadow_207_6436" result="shape"/>
    </filter>
  </defs>
</svg>