<svg viewBox="0 0 15 15" fill="#000000" xmlns="http://www.w3.org/2000/svg">
  <path d="M14.0938 10.5874C13.8926 10.5874 13.6996 10.6669 13.5568 10.8085C13.414 10.9502 13.3329 11.1425 13.3313 11.3437V12.4999C13.3313 12.7601 13.2279 13.0097 13.0438 13.1937C12.8598 13.3778 12.6102 13.4812 12.35 13.4812H2.5C2.23976 13.4812 1.99017 13.3778 1.80615 13.1937C1.62213 13.0097 1.51875 12.7601 1.51875 12.4999V11.3437C1.50154 11.1541 1.41409 10.9779 1.27358 10.8496C1.13308 10.7213 0.949664 10.6501 0.759375 10.6501C0.569086 10.6501 0.385674 10.7213 0.245166 10.8496C0.104658 10.9779 0.0172103 11.1541 0 11.3437V12.4999C0 13.1629 0.263392 13.7988 0.732233 14.2677C1.20107 14.7365 1.83696 14.9999 2.5 14.9999H12.35C13.013 14.9999 13.6489 14.7365 14.1178 14.2677C14.5866 13.7988 14.85 13.1629 14.85 12.4999V11.3437C14.85 11.1431 14.7703 10.9507 14.6285 10.8089C14.4867 10.6671 14.2943 10.5874 14.0938 10.5874Z" />
  <path d="M7.425 0C7.10342 0 6.79502 0.127745 6.56763 0.355133C6.34024 0.582521 6.2125 0.890925 6.2125 1.2125V6.875C6.2125 6.91644 6.19604 6.95618 6.16673 6.98549C6.13743 7.01479 6.09769 7.03125 6.05625 7.03125H4.39375C4.28141 7.03893 4.17323 7.07682 4.08065 7.14092C3.98807 7.20501 3.91453 7.29292 3.86779 7.39536C3.82105 7.4978 3.80285 7.61097 3.81512 7.7229C3.82739 7.83483 3.86968 7.94137 3.9375 8.03125L6.96875 11.5188C7.02721 11.5812 7.09787 11.631 7.17635 11.665C7.25483 11.699 7.33946 11.7166 7.425 11.7166C7.51054 11.7166 7.59517 11.699 7.67365 11.665C7.75213 11.631 7.82279 11.5812 7.88125 11.5188L10.9125 8.03125C10.9803 7.94137 11.0226 7.83483 11.0349 7.7229C11.0471 7.61097 11.0289 7.4978 10.9822 7.39536C10.9355 7.29292 10.8619 7.20501 10.7693 7.14092C10.6768 7.07682 10.5686 7.03893 10.4562 7.03125H8.79375C8.75231 7.03125 8.71257 7.01479 8.68326 6.98549C8.65396 6.95618 8.6375 6.91644 8.6375 6.875V1.2125C8.6375 0.890925 8.50975 0.582521 8.28236 0.355133C8.05498 0.127745 7.74657 0 7.425 0V0Z" />
</svg>