<svg viewBox="0 0 24 16" fill="#000000" xmlns="http://www.w3.org/2000/svg">
  <path d="M11.1097 10.56C11.3468 10.7903 11.6642 10.9191 11.9947 10.9191C12.3252 10.9191 12.6427 10.7903 12.8797 10.56L22.5697 0.87C22.6349 0.804409 22.6807 0.722013 22.7019 0.631976C22.7231 0.541939 22.7189 0.44779 22.6897 0.36C22.6601 0.272389 22.6073 0.194469 22.5368 0.13458C22.4664 0.0746902 22.381 0.0350844 22.2897 0.02L21.9997 0H1.99973H1.70973C1.61809 0.0140193 1.53215 0.0532399 1.46152 0.11328C1.39088 0.173321 1.33833 0.251817 1.30973 0.34C1.27817 0.427495 1.27271 0.522275 1.29401 0.612816C1.31531 0.703357 1.36246 0.785758 1.42973 0.85L11.1097 10.56Z" />
  <path d="M23.89 1.83014C23.8604 1.81036 23.8256 1.7998 23.79 1.7998C23.7544 1.7998 23.7196 1.81036 23.69 1.83014L17.49 8.03014C17.4645 8.05266 17.444 8.08036 17.43 8.11139C17.416 8.14243 17.4087 8.17609 17.4087 8.21014C17.4087 8.24419 17.416 8.27785 17.43 8.30888C17.444 8.33992 17.4645 8.36762 17.49 8.39014L22.49 13.3901C22.6225 13.5323 22.6946 13.7204 22.6912 13.9147C22.6877 14.109 22.609 14.2943 22.4716 14.4318C22.3342 14.5692 22.1488 14.6479 21.9545 14.6513C21.7602 14.6547 21.5722 14.5826 21.43 14.4501L16.43 9.45014C16.4067 9.42594 16.3787 9.4067 16.3478 9.39355C16.3169 9.38041 16.2836 9.37363 16.25 9.37363C16.2164 9.37363 16.1831 9.38041 16.1522 9.39355C16.1213 9.4067 16.0933 9.42594 16.07 9.45014L13.94 11.5801C13.4229 12.0937 12.7238 12.3819 11.995 12.3819C11.2662 12.3819 10.5671 12.0937 10.05 11.5801L7.93 9.49014C7.90748 9.4646 7.87978 9.44415 7.84874 9.43014C7.81771 9.41613 7.78405 9.40888 7.75 9.40888C7.71595 9.40888 7.68229 9.41613 7.65126 9.43014C7.62022 9.44415 7.59252 9.4646 7.57 9.49014L2.57 14.4901C2.42782 14.6226 2.23978 14.6947 2.04548 14.6913C1.85118 14.6879 1.66579 14.6092 1.52838 14.4718C1.39097 14.3343 1.31225 14.149 1.30883 13.9547C1.3054 13.7604 1.37752 13.5723 1.51 13.4301L6.51 8.43014C6.53554 8.40762 6.55599 8.37992 6.57 8.34888C6.58401 8.31785 6.59125 8.28419 6.59125 8.25014C6.59125 8.21609 6.58401 8.18243 6.57 8.15139C6.55599 8.12036 6.53554 8.09266 6.51 8.07014L0.31 1.87014C0.2804 1.85036 0.2456 1.8398 0.21 1.8398C0.1744 1.8398 0.1396 1.85036 0.11 1.87014C0.0823591 1.88104 0.0578479 1.89862 0.038654 1.92131C0.0194601 1.94399 0.00618038 1.97107 0 2.00014L0 14.0001C0 14.5306 0.210714 15.0393 0.585786 15.4144C0.960859 15.7894 1.46957 16.0001 2 16.0001H22C22.5304 16.0001 23.0391 15.7894 23.4142 15.4144C23.7893 15.0393 24 14.5306 24 14.0001V2.00014C24.0008 1.96404 23.9908 1.92852 23.9712 1.8982C23.9516 1.86789 23.9233 1.84417 23.89 1.83014Z" />
</svg>