<svg viewBox="0 0 12 13" fill="#56A1F2" xmlns="http://www.w3.org/2000/svg">
  <path d="M11.748 2.36419C11.8713 2.19606 11.9453 1.99699 11.962 1.7892C11.9786 1.58141 11.9372 1.37308 11.8423 1.18747C11.7474 1.00186 11.6028 0.846274 11.4247 0.738074C11.2465 0.629875 11.0418 0.573324 10.8333 0.574733H1.83602C1.62853 0.576272 1.42548 0.634926 1.24913 0.744261C1.07279 0.853595 0.92996 1.00939 0.836319 1.19455C0.742547 1.37724 0.701308 1.58237 0.717193 1.7871C0.733077 1.99184 0.805463 2.18815 0.926292 2.3542L4.47522 7.43766V11.4365C4.47403 11.5931 4.50544 11.7483 4.56744 11.8922C4.62944 12.036 4.72069 12.1654 4.83539 12.2721C4.95009 12.3788 5.08573 12.4605 5.23369 12.512C5.38165 12.5635 5.5387 12.5836 5.69485 12.5711C5.97055 12.5783 6.24265 12.5073 6.47962 12.3662L7.71425 11.5964C7.85335 11.4911 7.96631 11.3552 8.04433 11.1991C8.12235 11.0431 8.16334 10.8711 8.16411 10.6967V7.44266L11.748 2.36419ZM7.02945 6.86284C6.95431 6.96776 6.91409 7.09367 6.91449 7.22273V10.4618C6.91474 10.5049 6.90382 10.5473 6.8828 10.585C6.86178 10.6227 6.83137 10.6543 6.79452 10.6767L6.08974 11.0916C6.05174 11.1135 6.00864 11.125 5.96477 11.125C5.9209 11.125 5.8778 11.1135 5.83981 11.0916C5.80204 11.0698 5.77063 11.0384 5.74871 11.0007C5.72678 10.963 5.71511 10.9202 5.71485 10.8766V7.24272C5.71535 7.11596 5.67697 6.9921 5.60488 6.88783L2.33587 2.21924C2.31255 2.1799 2.30025 2.13501 2.30025 2.08928C2.30025 2.04355 2.31255 1.99866 2.33587 1.95932C2.35717 1.91819 2.38949 1.88379 2.4292 1.85995C2.46892 1.83612 2.51448 1.8238 2.5608 1.82436H10.1135C10.1598 1.8238 10.2054 1.83612 10.2451 1.85995C10.2848 1.88379 10.3172 1.91819 10.3385 1.95932C10.3618 1.99866 10.3741 2.04355 10.3741 2.08928C10.3741 2.13501 10.3618 2.1799 10.3385 2.21924L7.02945 6.86284Z" />
</svg>