<svg viewBox="0 0 23 25" fill="#FFFFFF" xmlns="http://www.w3.org/2000/svg">
<path d="M16.4599 19.625H6.11987V24.075H16.4599V19.625Z" />
<path d="M1.21991 17.9135L0.219908 18.9135V22.9135C0.213207 23.0601 0.235647 23.2066 0.28593 23.3445C0.336213 23.4824 0.41334 23.6089 0.512849 23.7168C0.612357 23.8247 0.732271 23.9117 0.865653 23.973C0.999034 24.0342 1.14323 24.0684 1.28991 24.0735H4.61991V14.6035L1.21991 17.9135Z" />
<path d="M22.4099 22.9645V11.1945C22.4099 11.0476 22.3807 10.902 22.3241 10.7664C22.2674 10.6308 22.1844 10.5078 22.0799 10.4045L15.5699 3.89453L12.3599 7.07453L17.9599 12.5445V24.0745H21.2899C21.4365 24.0759 21.5819 24.0481 21.7177 23.9929C21.8535 23.9377 21.9771 23.8562 22.0812 23.753C22.1854 23.6498 22.268 23.527 22.3244 23.3916C22.3808 23.2563 22.4099 23.1111 22.4099 22.9645Z" />
<path d="M11.2899 5.98448L14.5099 2.83448L12.0799 0.404475C11.9767 0.299862 11.8537 0.216799 11.718 0.160106C11.5824 0.103412 11.4369 0.0742188 11.2899 0.0742188C11.1429 0.0742188 10.9974 0.103412 10.8618 0.160106C10.7262 0.216799 10.6032 0.299862 10.4999 0.404475L0.499922 10.4045C0.395355 10.5078 0.312339 10.6308 0.25569 10.7664C0.199042 10.902 0.169888 11.0475 0.169922 11.1945V16.8445L4.61992 12.5045L11.2899 5.98448Z" />
</svg>
