<svg viewBox="0 0 25 25" fill="#FFFFFF" xmlns="http://www.w3.org/2000/svg">
<path d="M23.1699 22.9297H2.66992C2.53731 22.9297 2.41014 22.877 2.31637 22.7832C2.2226 22.6895 2.16992 22.5623 2.16992 22.4297V1.92969C2.16992 1.66447 2.06457 1.41012 1.87703 1.22258C1.68949 1.03504 1.43514 0.929688 1.16992 0.929688C0.904705 0.929688 0.650351 1.03504 0.462815 1.22258C0.275279 1.41012 0.169922 1.66447 0.169922 1.92969L0.169922 23.4497C0.169922 23.644 0.208203 23.8365 0.28258 24.0161C0.356957 24.1956 0.465973 24.3588 0.603404 24.4962C0.740835 24.6336 0.903989 24.7427 1.08355 24.817C1.26311 24.8914 1.45557 24.9297 1.64992 24.9297H23.1699C23.4351 24.9297 23.6895 24.8243 23.877 24.6368C24.0646 24.4493 24.1699 24.1949 24.1699 23.9297C24.1699 23.6645 24.0646 23.4101 23.877 23.2226C23.6895 23.035 23.4351 22.9297 23.1699 22.9297Z" />
<path d="M5.66992 20.929H21.1699C21.3591 20.9371 21.5479 20.9078 21.7257 20.8427C21.9035 20.7777 22.0668 20.6783 22.2061 20.5501C22.3454 20.4219 22.4581 20.2675 22.5377 20.0957C22.6173 19.924 22.6622 19.7382 22.6699 19.549V17.809C22.6622 17.6199 22.6173 17.4341 22.5377 17.2623C22.4581 17.0906 22.3454 16.9362 22.2061 16.808C22.0668 16.6798 21.9035 16.5804 21.7257 16.5153C21.5479 16.4503 21.3591 16.421 21.1699 16.429H5.66992C5.48078 16.421 5.29191 16.4503 5.11411 16.5153C4.93631 16.5804 4.77309 16.6798 4.63376 16.808C4.49444 16.9362 4.38176 17.0906 4.30217 17.2623C4.22258 17.4341 4.17764 17.6199 4.16992 17.809V19.549C4.17764 19.7382 4.22258 19.924 4.30217 20.0957C4.38176 20.2675 4.49444 20.4219 4.63376 20.5501C4.77309 20.6783 4.93631 20.7777 5.11411 20.8427C5.29191 20.9078 5.48078 20.9371 5.66992 20.929Z" />
<path d="M4.16992 12.549C4.17764 12.7382 4.22258 12.924 4.30217 13.0957C4.38176 13.2675 4.49444 13.4219 4.63376 13.5501C4.77309 13.6783 4.93631 13.7777 5.11411 13.8427C5.29191 13.9078 5.48078 13.9371 5.66992 13.929H15.1699C15.3591 13.9371 15.5479 13.9078 15.7257 13.8427C15.9035 13.7777 16.0668 13.6783 16.2061 13.5501C16.3454 13.4219 16.4581 13.2675 16.5377 13.0957C16.6173 12.924 16.6622 12.7382 16.6699 12.549V10.809C16.6622 10.6199 16.6173 10.4341 16.5377 10.2623C16.4581 10.0906 16.3454 9.93617 16.2061 9.80799C16.0668 9.67982 15.9035 9.58037 15.7257 9.51535C15.5479 9.45032 15.3591 9.42099 15.1699 9.42904H5.66992C5.48078 9.42099 5.29191 9.45032 5.11411 9.51535C4.93631 9.58037 4.77309 9.67982 4.63376 9.80799C4.49444 9.93617 4.38176 10.0906 4.30217 10.2623C4.22258 10.4341 4.17764 10.6199 4.16992 10.809V12.549Z" />
<path d="M5.66992 6.92904H10.1699C10.3591 6.93708 10.5479 6.90775 10.7257 6.84273C10.9035 6.7777 11.0668 6.67825 11.2061 6.55008C11.3454 6.4219 11.4581 6.26751 11.5377 6.09574C11.6173 5.92397 11.6622 5.73819 11.6699 5.54904V3.80904C11.6622 3.61988 11.6173 3.4341 11.5377 3.26233C11.4581 3.09056 11.3454 2.93617 11.2061 2.80799C11.0668 2.67982 10.9035 2.58037 10.7257 2.51535C10.5479 2.45032 10.3591 2.42099 10.1699 2.42904H5.66992C5.48078 2.42099 5.29191 2.45032 5.11411 2.51535C4.93631 2.58037 4.77309 2.67982 4.63376 2.80799C4.49444 2.93617 4.38176 3.09056 4.30217 3.26233C4.22258 3.4341 4.17764 3.61988 4.16992 3.80904V5.54904C4.17764 5.73819 4.22258 5.92397 4.30217 6.09574C4.38176 6.26751 4.49444 6.4219 4.63376 6.55008C4.77309 6.67825 4.93631 6.7777 5.11411 6.84273C5.29191 6.90775 5.48078 6.93708 5.66992 6.92904Z" />
</svg>
