<svg viewBox="0 0 14 13" fill="#000000" xmlns="http://www.w3.org/2000/svg">
<path d="M6.66441 0.00452993C7.94975 0.0568261 9.19057 0.495439 10.2284 1.26439C11.2663 2.03334 12.0542 3.09774 12.4914 4.32174C12.5033 4.35408 12.5259 4.38131 12.5552 4.39892C12.5846 4.41652 12.619 4.42342 12.6527 4.41848L13.6628 4.27337C13.7185 4.26442 13.7755 4.2716 13.8273 4.29407C13.8791 4.31654 13.9236 4.35338 13.9556 4.40034C13.9846 4.44863 14 4.50406 14 4.56057C14 4.61709 13.9846 4.67251 13.9556 4.7208L12.3838 7.56264C12.3594 7.60582 12.3247 7.64216 12.283 7.66858C12.2413 7.69494 12.1938 7.71048 12.1448 7.71381C12.0993 7.72221 12.0524 7.71883 12.0085 7.70407C11.9646 7.68926 11.9252 7.6635 11.8937 7.62916L9.64065 5.36776C9.60228 5.32774 9.57533 5.27793 9.56266 5.22362C9.55005 5.16932 9.5522 5.11257 9.56893 5.05941C9.58477 5.00536 9.61579 4.95713 9.65822 4.92062C9.70065 4.88412 9.75271 4.8609 9.80799 4.85383L10.8359 4.69057C10.8581 4.6874 10.8793 4.67923 10.8979 4.66667C10.9165 4.65411 10.9321 4.63749 10.9435 4.61801C10.9541 4.59639 10.9595 4.5726 10.9595 4.54848C10.9595 4.52436 10.9541 4.50057 10.9435 4.47894C10.563 3.6266 9.95566 2.89811 9.18943 2.3749C8.42326 1.85168 7.5283 1.55436 6.60465 1.51616C5.75539 1.48612 4.91287 1.67867 4.15883 2.07512C3.40478 2.47158 2.76481 3.05847 2.30101 3.77888C1.83721 4.49929 1.56532 5.32876 1.51171 6.18676C1.4581 7.04482 1.6246 7.90234 1.99506 8.67611C2.36551 9.44988 2.92734 10.1136 3.62603 10.6029C4.32474 11.0924 5.13659 11.3907 5.98281 11.469C6.82906 11.5475 7.68099 11.4032 8.45589 11.0504C9.23085 10.6975 9.90247 10.1481 10.4056 9.4552C10.4592 9.36468 10.5308 9.28656 10.6161 9.22574C10.7012 9.16491 10.798 9.12282 10.9003 9.10214C11.0025 9.08153 11.1079 9.08274 11.2096 9.10571C11.3114 9.12875 11.4073 9.17301 11.4911 9.23577C11.5748 9.29853 11.6448 9.37829 11.6962 9.47001C11.7477 9.56174 11.7797 9.66332 11.7901 9.76829C11.8004 9.87325 11.7889 9.97925 11.7563 10.0794C11.7238 10.1796 11.6708 10.2718 11.6009 10.3501C10.9447 11.2532 10.0688 11.9692 9.05825 12.4287C8.04776 12.8882 6.937 13.0755 5.83382 12.9724C4.73061 12.8694 3.67252 12.4794 2.76227 11.8405C1.85203 11.2015 1.12057 10.3353 0.63892 9.32587C0.157269 8.31646 -0.0581953 7.19816 0.0134495 6.07962C0.0850938 4.96112 0.441413 3.88034 1.0478 2.94226C1.65419 2.0042 2.49004 1.24071 3.47419 0.725962C4.45833 0.211217 5.55732 -0.0373058 6.66441 0.00452993Z" />
</svg>
