<svg viewBox="0 0 25 25" fill="#FFFFFF" xmlns="http://www.w3.org/2000/svg">
<path d="M23 10.1465H21.14C20.9517 9.50825 20.697 8.89154 20.38 8.30648L21.69 6.98648C21.8311 6.84869 21.9429 6.68372 22.0185 6.50153C22.0941 6.31935 22.1321 6.12373 22.13 5.92648C22.1315 5.72932 22.0933 5.53387 22.0177 5.35177C21.9421 5.16967 21.8307 5.00463 21.69 4.86648L20.28 3.45648C20.1414 3.31619 19.9764 3.20481 19.7944 3.12879C19.6124 3.05277 19.4172 3.01362 19.22 3.01362C19.0228 3.01362 18.8276 3.05277 18.6456 3.12879C18.4636 3.20481 18.2986 3.31619 18.16 3.45648L16.84 4.77648C16.2571 4.45244 15.64 4.19418 15 4.00648V2.14648C15 1.74866 14.842 1.36713 14.5607 1.08582C14.2794 0.80452 13.8978 0.646484 13.5 0.646484L11.5 0.646484C11.1022 0.646484 10.7206 0.80452 10.4393 1.08582C10.158 1.36713 10 1.74866 10 2.14648V4.00648C9.36003 4.19418 8.74291 4.45244 8.16 4.77648L6.84 3.45648C6.70141 3.31619 6.53636 3.20481 6.3544 3.12879C6.17244 3.05277 5.9772 3.01362 5.78 3.01362C5.5828 3.01362 5.38756 3.05277 5.2056 3.12879C5.02365 3.20481 4.85859 3.31619 4.72 3.45648L3.31 4.86648C3.16932 5.00463 3.05787 5.16967 2.98228 5.35177C2.90669 5.53387 2.8685 5.72932 2.87 5.92648C2.86676 6.12389 2.90414 6.31986 2.97983 6.50221C3.05553 6.68457 3.16791 6.8494 3.31 6.98648L4.62 8.30648C4.30299 8.89154 4.04826 9.50825 3.86 10.1465H2C1.60218 10.1465 1.22064 10.3045 0.93934 10.5858C0.658035 10.8671 0.5 11.2487 0.5 11.6465L0.5 13.6465C0.5 14.0443 0.658035 14.4258 0.93934 14.7071C1.22064 14.9884 1.60218 15.1465 2 15.1465H3.86C4.04648 15.7853 4.30128 16.4022 4.62 16.9865L3.31 18.3065C3.0291 18.5877 2.87132 18.969 2.87132 19.3665C2.87132 19.764 3.0291 20.1452 3.31 20.4265L4.72 21.8365C5.00497 22.1103 5.38482 22.2632 5.78 22.2632C6.17518 22.2632 6.55503 22.1103 6.84 21.8365L8.16 20.5265C8.74424 20.8452 9.36114 21.1 10 21.2865V23.1465C10 23.5443 10.158 23.9258 10.4393 24.2071C10.7206 24.4884 11.1022 24.6465 11.5 24.6465H13.5C13.8978 24.6465 14.2794 24.4884 14.5607 24.2071C14.842 23.9258 15 23.5443 15 23.1465V21.2865C15.6389 21.1 16.2558 20.8452 16.84 20.5265L18.16 21.8365C18.2986 21.9768 18.4636 22.0882 18.6456 22.1642C18.8276 22.2402 19.0228 22.2793 19.22 22.2793C19.4172 22.2793 19.6124 22.2402 19.7944 22.1642C19.9764 22.0882 20.1414 21.9768 20.28 21.8365L21.69 20.4265C21.9709 20.1452 22.1287 19.764 22.1287 19.3665C22.1287 18.969 21.9709 18.5877 21.69 18.3065L20.38 16.9865C20.6987 16.4022 20.9535 15.7853 21.14 15.1465H23C23.3978 15.1465 23.7794 14.9884 24.0607 14.7071C24.342 14.4258 24.5 14.0443 24.5 13.6465V11.6465C24.5 11.2487 24.342 10.8671 24.0607 10.5858C23.7794 10.3045 23.3978 10.1465 23 10.1465ZM12.5 17.6465C11.5111 17.6465 10.5444 17.3532 9.72215 16.8038C8.8999 16.2544 8.25904 15.4735 7.8806 14.5599C7.50216 13.6463 7.40315 12.6409 7.59607 11.671C7.789 10.7011 8.2652 9.81021 8.96447 9.11095C9.66373 8.41169 10.5546 7.93548 11.5245 7.74256C12.4945 7.54963 13.4998 7.64865 14.4134 8.02709C15.327 8.40552 16.1079 9.04639 16.6573 9.86863C17.2068 10.6909 17.5 11.6576 17.5 12.6465C17.5 13.9726 16.9732 15.2443 16.0355 16.182C15.0979 17.1197 13.8261 17.6465 12.5 17.6465Z" />
</svg>
