<svg viewBox="0 0 24 25" fill="#FFFFFF" xmlns="http://www.w3.org/2000/svg">
<path d="M16.0551 11.2316C16.1332 11.1974 16.201 11.1435 16.2518 11.0751C16.3027 11.0067 16.3348 10.9262 16.3451 10.8416C16.36 10.7591 16.3531 10.6742 16.325 10.5953C16.297 10.5163 16.2487 10.4461 16.1851 10.3916C15.7466 10.0247 15.2585 9.72167 14.7351 9.49158C14.6945 9.47188 14.6596 9.44234 14.6334 9.40566C14.6072 9.36898 14.5906 9.32632 14.5851 9.28158C14.5842 9.23625 14.5947 9.19141 14.6157 9.15122C14.6366 9.11102 14.6674 9.07675 14.7051 9.05157C15.5231 8.52321 16.1477 7.74374 16.485 6.83019C16.8223 5.91664 16.8542 4.91831 16.5758 3.98511C16.2974 3.05191 15.7238 2.2342 14.9411 1.65475C14.1584 1.07531 13.2089 0.765407 12.2351 0.771575C11.0371 0.774216 9.88898 1.25128 9.04188 2.09837C8.19479 2.94546 7.71773 4.09361 7.71509 5.29157C7.71495 6.0409 7.90362 6.77818 8.26366 7.43534C8.6237 8.0925 9.1435 8.64835 9.77509 9.05157C9.81163 9.07724 9.84095 9.11188 9.86021 9.15217C9.87948 9.19245 9.88805 9.23702 9.88509 9.28158C9.8796 9.32632 9.863 9.36898 9.8368 9.40566C9.8106 9.44234 9.77563 9.47188 9.73509 9.49158C9.20359 9.7321 8.706 10.0414 8.25509 10.4116C8.18963 10.4672 8.13959 10.5387 8.10982 10.6193C8.08004 10.6999 8.07152 10.7868 8.08509 10.8716C8.09601 10.9547 8.12854 11.0336 8.17942 11.1002C8.2303 11.1669 8.29776 11.2191 8.37509 11.2516C9.30047 11.6672 10.108 12.3064 10.7251 13.1116C10.769 13.1741 10.8274 13.225 10.8953 13.2598C10.9633 13.2947 11.0387 13.3124 11.1151 13.3116H13.2551C13.3315 13.3124 13.4069 13.2947 13.4748 13.2598C13.5428 13.225 13.6012 13.1741 13.6451 13.1116C14.2727 12.2874 15.1029 11.6397 16.0551 11.2316ZM9.85509 4.47157C9.86922 4.43643 9.89086 4.40479 9.9185 4.37888C9.94614 4.35297 9.9791 4.33341 10.0151 4.32157C10.0493 4.3048 10.087 4.29607 10.1251 4.29607C10.1632 4.29607 10.2008 4.3048 10.2351 4.32157C11.1756 4.94258 12.2781 5.27298 13.4051 5.27157C13.7407 5.26724 14.0753 5.23378 14.4051 5.17157C14.4424 5.16576 14.4806 5.16815 14.5169 5.17859C14.5532 5.18902 14.5868 5.20725 14.6154 5.232C14.6439 5.25675 14.6668 5.28742 14.6823 5.32189C14.6977 5.35636 14.7055 5.39379 14.7051 5.43157C14.6326 6.0569 14.3278 6.63216 13.8511 7.04331C13.3745 7.45446 12.7607 7.67149 12.1315 7.65135C11.5023 7.63122 10.9037 7.3754 10.4542 6.93461C10.0048 6.49382 9.73743 5.90025 9.70509 5.27157C9.71069 4.99847 9.76137 4.72816 9.85509 4.47157Z" />
<path d="M10.4551 16.7713C10.4584 15.988 10.258 15.2174 9.87374 14.5348C9.48946 13.8523 8.9344 13.2814 8.263 12.878C7.59159 12.4746 6.82689 12.2526 6.04384 12.2337C5.2608 12.2149 4.4863 12.3999 3.79627 12.7705C3.10624 13.1411 2.52438 13.6847 2.10771 14.348C1.69105 15.0112 1.45389 15.7714 1.41949 16.5539C1.38509 17.3364 1.55463 18.1144 1.91148 18.8117C2.26833 19.509 2.80025 20.1015 3.45509 20.5313C3.49857 20.5533 3.53431 20.5881 3.55753 20.631C3.58075 20.6739 3.59037 20.7228 3.58509 20.7713C3.58356 20.8158 3.56965 20.8591 3.54492 20.8962C3.5202 20.9333 3.48563 20.9627 3.44509 20.9813C3.06155 21.1502 2.69631 21.358 2.35509 21.6013C1.58508 22.1372 0.951449 22.8461 0.50509 23.6713C0.441105 23.7841 0.407471 23.9116 0.407471 24.0413C0.407471 24.171 0.441105 24.2985 0.50509 24.4113C0.576911 24.5257 0.677547 24.6191 0.796902 24.6823C0.916256 24.7455 1.05013 24.7762 1.18509 24.7713H10.7251C10.855 24.771 10.9827 24.7378 11.0964 24.6749C11.21 24.6119 11.3059 24.5213 11.3751 24.4113C11.4391 24.2985 11.4727 24.171 11.4727 24.0413C11.4727 23.9116 11.4391 23.7841 11.3751 23.6713C10.9326 22.8352 10.2987 22.1157 9.52509 21.5713C9.18387 21.328 8.81863 21.1202 8.43509 20.9513C8.39679 20.9366 8.36289 20.9123 8.33663 20.8808C8.31037 20.8493 8.29263 20.8116 8.28509 20.7713C8.27997 20.7265 8.28757 20.6811 8.30702 20.6405C8.32648 20.5998 8.357 20.5654 8.39509 20.5413C9.02617 20.1351 9.54538 19.5772 9.90525 18.9187C10.2651 18.2601 10.4542 17.5218 10.4551 16.7713ZM3.56509 15.9513C3.57167 15.9106 3.58906 15.8724 3.61545 15.8408C3.64184 15.8091 3.67625 15.7851 3.71509 15.7713C3.7491 15.7537 3.78682 15.7446 3.82509 15.7446C3.86336 15.7446 3.90108 15.7537 3.93509 15.7713C4.87 16.41 5.97292 16.7579 7.10509 16.7713C7.44066 16.7664 7.7752 16.733 8.10509 16.6713C8.14234 16.6661 8.18027 16.6688 8.21643 16.6791C8.25259 16.6894 8.2862 16.7072 8.31509 16.7313C8.34445 16.755 8.36723 16.7858 8.38124 16.8208C8.39525 16.8558 8.40002 16.8939 8.39509 16.9313C8.37229 17.2896 8.2729 17.6388 8.10363 17.9553C7.93436 18.2719 7.69915 18.5485 7.41388 18.7664C7.1286 18.9844 6.7999 19.1386 6.44995 19.2186C6.1 19.2987 5.73695 19.3028 5.38529 19.2306C5.03364 19.1583 4.70156 19.0115 4.41148 18.8001C4.1214 18.5886 3.88006 18.3173 3.70374 18.0046C3.52743 17.6919 3.42024 17.345 3.38943 16.9873C3.35861 16.6297 3.40487 16.2695 3.52509 15.9313L3.56509 15.9513Z" />
<path d="M22.0151 21.5724C21.6739 21.3291 21.3086 21.1213 20.9251 20.9524C20.8887 20.9364 20.8568 20.9115 20.8323 20.8801C20.8079 20.8487 20.7917 20.8117 20.7851 20.7724C20.78 20.7276 20.7876 20.6823 20.807 20.6416C20.8265 20.6009 20.857 20.5665 20.8951 20.5424C21.713 20.0118 22.3374 19.231 22.6752 18.3164C23.0129 17.4018 23.0459 16.4026 22.7693 15.4677C22.4926 14.5329 21.921 13.7125 21.1399 13.1291C20.3588 12.5457 19.41 12.2305 18.4351 12.2305C17.4602 12.2305 16.5113 12.5457 15.7302 13.1291C14.9491 13.7125 14.3776 14.5329 14.1009 15.4677C13.8242 16.4026 13.8573 17.4018 14.195 18.3164C14.5328 19.231 15.1572 20.0118 15.9751 20.5424C16.0132 20.5665 16.0437 20.6009 16.0632 20.6416C16.0826 20.6823 16.0902 20.7276 16.0851 20.7724C16.0836 20.817 16.0697 20.8602 16.0449 20.8973C16.0202 20.9344 15.9856 20.9639 15.9451 20.9824C15.5615 21.1513 15.1963 21.3591 14.8551 21.6024C14.0815 22.1468 13.4476 22.8664 13.0051 23.7024C12.9411 23.8152 12.9075 23.9427 12.9075 24.0724C12.9075 24.2021 12.9411 24.3296 13.0051 24.4424C13.0743 24.5524 13.1701 24.6431 13.2838 24.706C13.3974 24.7689 13.5252 24.8021 13.6551 24.8024H23.1851C23.315 24.8021 23.4427 24.7689 23.5564 24.706C23.67 24.6431 23.7659 24.5524 23.8351 24.4424C23.8991 24.3296 23.9327 24.2021 23.9327 24.0724C23.9327 23.9427 23.8991 23.8152 23.8351 23.7024C23.405 22.8587 22.7813 22.1288 22.0151 21.5724ZM16.0651 15.9324C16.0718 15.8984 16.086 15.8664 16.1068 15.8387C16.1276 15.811 16.1543 15.7883 16.1851 15.7724C16.2191 15.7549 16.2568 15.7457 16.2951 15.7457C16.3334 15.7457 16.3711 15.7549 16.4051 15.7724C17.34 16.4111 18.4429 16.759 19.5751 16.7724C19.9107 16.7675 20.2452 16.7341 20.5751 16.6724C20.6123 16.6672 20.6503 16.6699 20.6864 16.6802C20.7226 16.6906 20.7562 16.7083 20.7851 16.7324C20.8145 16.7561 20.8372 16.7869 20.8512 16.8219C20.8653 16.857 20.87 16.895 20.8651 16.9324C20.8423 17.2907 20.7429 17.6399 20.5736 17.9565C20.4044 18.273 20.1692 18.5496 19.8839 18.7676C19.5986 18.9855 19.2699 19.1397 18.9199 19.2198C18.57 19.2998 18.2069 19.3039 17.8553 19.2317C17.5036 19.1595 17.1716 19.0127 16.8815 18.8012C16.5914 18.5897 16.3501 18.3184 16.1737 18.0057C15.9974 17.693 15.8902 17.3461 15.8594 16.9885C15.8286 16.6308 15.8749 16.2707 15.9951 15.9324H16.0651Z" />
</svg>
