<svg viewBox="0 0 7 24" fill="#000000" xmlns="http://www.w3.org/2000/svg">
  <path d="M3.25 6.5C5.04493 6.5 6.5 5.04493 6.5 3.25C6.5 1.45507 5.04493 0 3.25 0C1.45507 0 0 1.45507 0 3.25C0 5.04493 1.45507 6.5 3.25 6.5Z" />
  <path d="M3.25 15.25C5.04493 15.25 6.5 13.7949 6.5 12C6.5 10.2051 5.04493 8.75 3.25 8.75C1.45507 8.75 0 10.2051 0 12C0 13.7949 1.45507 15.25 3.25 15.25Z" />
  <path d="M3.25 24C5.04493 24 6.5 22.5449 6.5 20.75C6.5 18.9551 5.04493 17.5 3.25 17.5C1.45507 17.5 0 18.9551 0 20.75C0 22.5449 1.45507 24 3.25 24Z" />
</svg>