<?xml version="1.0" encoding="utf-8"?>
<svg viewBox="0 0 54 52" fill="#FFD335" xmlns="http://www.w3.org/2000/svg">
  <g filter="url(#filter0_d_207_6483)" style="" transform="matrix(1.281186, 0, 0, 1.280323, -7.447848, -7.018204)">
    <path d="M45.2191 39.4138L29.567 9.67478C29.3017 9.16965 28.9034 8.74664 28.4151 8.45146C27.9268 8.15629 27.3672 8.00018 26.7966 8C26.226 8.00018 25.6664 8.15629 25.1781 8.45146C24.6898 8.74664 24.2915 9.16965 24.0262 9.67478L8.37407 39.4138C8.11345 39.8979 7.98492 40.442 8.00141 40.9916C8.01789 41.5411 8.17881 42.0766 8.46798 42.5442C8.75321 42.9947 9.14879 43.3649 9.6172 43.6196C10.0856 43.8744 10.6113 44.0052 11.1445 43.9998H42.4487C42.9875 43.9997 43.5172 43.8604 43.9864 43.5956C44.4556 43.3307 44.8486 42.9493 45.1272 42.4881C45.4058 42.0269 45.5606 41.5016 45.5767 40.963C45.5929 40.4244 45.4697 39.8908 45.2191 39.4138ZM25.2314 20.5217C25.2314 20.1066 25.3963 19.7084 25.6898 19.4149C25.9834 19.1214 26.3815 18.9565 26.7966 18.9565C27.2117 18.9565 27.6098 19.1214 27.9034 19.4149C28.1969 19.7084 28.3618 20.1066 28.3618 20.5217V29.9129C28.3618 30.3281 28.1969 30.7262 27.9034 31.0197C27.6098 31.3132 27.2117 31.4782 26.7966 31.4782C26.3815 31.4782 25.9834 31.3132 25.6898 31.0197C25.3963 30.7262 25.2314 30.3281 25.2314 29.9129V20.5217ZM26.8749 38.5216C26.2584 38.518 25.667 38.2769 25.2239 37.8483C24.7807 37.4197 24.5199 36.8368 24.4957 36.2207C24.4853 35.9113 24.5369 35.6029 24.6477 35.3138C24.7584 35.0247 24.926 34.7607 25.1405 34.5375C25.355 34.3142 25.612 34.1363 25.8965 34.014C26.1809 33.8918 26.487 33.8279 26.7966 33.826C27.4131 33.8295 28.0044 34.0707 28.4476 34.4993C28.8907 34.9278 29.1515 35.5108 29.1757 36.1268C29.1862 36.4362 29.1345 36.7446 29.0238 37.0337C28.913 37.3228 28.7455 37.5868 28.531 37.8101C28.3165 38.0333 28.0594 38.2113 27.775 38.3335C27.4905 38.4557 27.1844 38.5197 26.8749 38.5216Z"/>
  </g>
  <defs>
    <filter id="filter0_d_207_6483" x="0" y="0" width="53.5781" height="52" filterUnits="userSpaceOnUse" color-interpolation-filters="sRGB">
      <feFlood flood-opacity="0" result="BackgroundImageFix"/>
      <feColorMatrix in="SourceAlpha" type="matrix" values="0 0 0 0 0 0 0 0 0 0 0 0 0 0 0 0 0 0 127 0" result="hardAlpha"/>
      <feOffset/>
      <feGaussianBlur stdDeviation="4"/>
      <feComposite in2="hardAlpha" operator="out"/>
      <feColorMatrix type="matrix" values="0 0 0 0 1 0 0 0 0 0.825725 0 0 0 0 0.207843 0 0 0 0.25 0"/>
      <feBlend mode="normal" in2="BackgroundImageFix" result="effect1_dropShadow_207_6483"/>
      <feBlend mode="normal" in="SourceGraphic" in2="effect1_dropShadow_207_6483" result="shape"/>
    </filter>
  </defs>
</svg>